<?xml version="1.0" encoding="utf-8"?>
<!-- Generator: Adobe Illustrator 22.1.0, SVG Export Plug-In . SVG Version: 6.00 Build 0)  -->
<svg version="1.1" id="Capa_1" xmlns="http://www.w3.org/2000/svg" xmlns:xlink="http://www.w3.org/1999/xlink" x="0px" y="0px"
	 viewBox="0 0 1019 23.3" style="enable-background:new 0 0 1019 23.3;" xml:space="preserve">
<style type="text/css">
	.st0{fill:#428DFF;}
	.st1{fill:none;stroke:#000000;stroke-width:0.3;}
</style>
<g>
	<g>
		<g>
			<path class="st0" d="M995.8,23.3H23.2C10.4,23.3,0,18.1,0,11.6S10.4,0,23.2,0h972.7c12.8,0,23.2,5.2,23.2,11.6
				C1019,18.1,1008.6,23.3,995.8,23.3z"/>
		</g>
	</g>
	<line class="st1" x1="0" y1="-54" x2="0" y2="-18"/>
	<line class="st1" x1="-54" y1="0" x2="-18" y2="0"/>
	<line class="st1" x1="-54" y1="23.3" x2="-18" y2="23.3"/>
	<line class="st1" x1="0" y1="77.3" x2="0" y2="41.3"/>
	<line class="st1" x1="1019" y1="-54" x2="1019" y2="-18"/>
	<line class="st1" x1="1073" y1="0" x2="1037" y2="0"/>
	<line class="st1" x1="1073" y1="23.3" x2="1037" y2="23.3"/>
	<line class="st1" x1="1019" y1="77.3" x2="1019" y2="41.3"/>
</g>
</svg>
