<?xml version="1.0" encoding="utf-8"?>
<!-- Generator: Adobe Illustrator 22.1.0, SVG Export Plug-In . SVG Version: 6.00 Build 0)  -->
<svg version="1.1" id="Layer_1" xmlns="http://www.w3.org/2000/svg" xmlns:xlink="http://www.w3.org/1999/xlink" x="0px" y="0px"
	 viewBox="0 0 512 512" style="enable-background:new 0 0 512 512;" xml:space="preserve">
<style type="text/css">
	.st0{fill:#25C6B7;}
	.st1{fill:#26C6B7;}
	.st2{fill:#26C7B7;}
	.st3{fill:#25C7B7;}
	.st4{fill:#27C7B7;}
</style>
<g>
	<g>
		<path class="st0" d="M251.7,512c-2.4-2.8-4.7-5.8-7.3-8.4c-42-42.1-84-84.1-126.1-126.1c-2.7-2.7-5.8-4.9-9.1-7.7
			c9.6-15.2,18.1-29.4,27.6-43c2.1-3,7.2-4.6,11.3-5.6c4.7-1.1,9.6-0.9,15.5-1.4c37.6,54.9,75.7,110.4,114.1,166.5
			c-8,8.6-15.8,17.1-23.7,25.6C253.2,512,252.4,512,251.7,512z"/>
		<path class="st0" d="M253.9,0c14.1,14.7,28.2,29.4,42.9,44.6c-17.4,27.3-34.9,54.7-51.3,80.5c-9.4,2.2-17.2,4.2-25.2,5.8
			c-2,0.4-4.4,0.2-6.3-0.6c-20.9-8.7-41.7-17.6-63.6-26.9c2.8-3.2,4.8-5.8,7.1-8.1c28.7-28.7,57.4-57.3,86-86.1
			c2.9-2.9,5.4-6.2,8.1-9.3C252.4,0,253.2,0,253.9,0z"/>
		<path class="st1" d="M496.2,269.5c-23.1,22.8-45.1,44.7-67.4,66.2c-2.2,2.1-6.9,3.3-10,2.7c-21.5-4.1-42.9-8.8-64.3-13.4
			c-6.8-1.5-15.3-15.8-14-24.1c3.7-23.9,7.5-47.7,11.5-71.5c1-5.8,15.6-14.9,20.9-12.6C413.5,234.1,454.1,251.5,496.2,269.5z"/>
		<path class="st0" d="M158.9,260.5c-12.5,3.6-18.1-2.7-23.8-11.3c-17.1-25.9-34.9-51.3-51.7-75.8c18.6-18.5,36.7-36.5,56.6-56.3
			c20.6,8.8,44.4,19,66.5,28.5c2.8,9.8,5.2,18,8,27.7C196.7,201.4,177.7,231.1,158.9,260.5z"/>
		<path class="st2" d="M177.3,305.3c14.3,2.9,28.5,5.7,42.8,8.7c17.2,3.6,34.3,7.4,51.5,11c5.7,1.2,11.5,3.3,17.2,3
			c14.1-0.6,17.2,12.9,26,19c1.3,0.9,0.9,5.1,0.5,7.6c-5.9,36.2-11.7,72.4-18,108.5c-0.7,3.9-3.6,7.4-6.4,12.8
			c-39.5-57.7-77.4-113-115.3-168.4C176.1,306.8,176.7,306.1,177.3,305.3z"/>
		<path class="st2" d="M336.6,216.5c-1.4,11-2.3,19.5-3.6,27.9c-2.7,17.2-5.5,34.3-8.7,51.4c-0.6,3.1-3.6,5.7-5.7,8.4
			c-0.4,0.5-1.6,0.3-2.1,0.8c-11.3,11.9-24.6,7.2-37.7,4.4c-28.4-6-56.9-12-85.3-18.1c-4.4-1-8.6-3.1-12.8-4.7
			c0.1-1,0.1-2.1,0.2-3.1C232,261.5,283.1,239.5,336.6,216.5z"/>
		<path class="st1" d="M309.3,56.2c14.2,14.4,28.1,27.8,41.1,41.9c2.8,3,4,9,3.4,13.3c-2.7,20.6-6,41-9.5,61.5
			c-1.3,7.7-6.8,10.4-14.2,7.3c-21.2-8.9-42.4-18-63.5-27.2c-7-3-10.5-13.3-6.5-19.7C276.3,107.7,292.6,82.4,309.3,56.2z"/>
		<path class="st3" d="M176.7,264c16.8-26.4,33.7-52.8,50.6-79.2c0.9-1.4,2.9-3.7,3.8-3.5c8.8,2.4,14-4.4,20.1-8
			c5.9-3.4,10.9-4.1,16.9-1.5c17.7,7.6,35.5,15,53.1,22.7c2.1,0.9,3.7,3.2,5.5,4.8c-2,1.9-3.7,4.6-6.1,5.7
			c-33.2,14.5-66.6,28.8-99.9,43.1c-14.1,6.1-28.1,12.1-42.2,18.1C177.8,265.5,177.2,264.7,176.7,264z"/>
		<path class="st2" d="M128.7,269.1c-3.1,7.4-8.5,7.2-13.8,6c-36.9-7.7-73.7-15.6-108.9-23c21.6-21.4,43.6-43.3,66.1-65.6
			C89.7,212.3,109.1,240.5,128.7,269.1z"/>
		<path class="st2" d="M408.4,353.7c-30.5,30.6-60.4,60.5-90.5,90.6c1.5-9.9,2.9-20.5,4.6-30.9c3-19,6.1-38.1,9.1-57.1
			c1.7-10.7,7.3-15.4,18.2-14.9c3.4,0.1,6.7,1.2,10,1.9C375.9,346.7,392,350.2,408.4,353.7z"/>
		<path class="st2" d="M375.6,199.7c17.4-7.5,32.7-13.9,47.9-20.7c4-1.8,6.8-1.8,10,1.5c23.4,23.7,47,47.3,70.4,71
			c0.2,0.2,0,0.7-0.2,2.9C461.2,236.2,419.2,218.3,375.6,199.7z"/>
		<path class="st2" d="M108.3,296.5c-17.1,7.4-33,14.2-47.5,20.5c-15.2-15-29.8-29.4-45.5-45c30.1,6.1,59.3,11.9,88.5,18
			C105.3,290.3,106.3,293.4,108.3,296.5z"/>
		<path class="st4" d="M370,119.1c16.2,16.2,30.3,30.3,45.2,45.1c-14.7,6.4-29.7,13.3-45,19.4c-4.9,1.9-9.9-1-9.2-6.5
			C363.5,158.2,366.8,139.5,370,119.1z"/>
		<path class="st2" d="M73.1,329.7c16.8-7,34.2-14.3,54.1-22.6c-8.3,18.8-19.9,32.9-28.8,48.3C89.6,346.5,81.6,338.3,73.1,329.7z"/>
	</g>
</g>
</svg>
