<?xml version="1.0" encoding="utf-8"?>
<!-- Generator: Adobe Illustrator 22.1.0, SVG Export Plug-In . SVG Version: 6.00 Build 0)  -->
<svg version="1.1" id="Layer_1" xmlns="http://www.w3.org/2000/svg" xmlns:xlink="http://www.w3.org/1999/xlink" x="0px" y="0px"
	 viewBox="0 0 512 512" style="enable-background:new 0 0 512 512;" xml:space="preserve">
<style type="text/css">
	.st0{fill:#007ACB;}
</style>
<g>
	<g>
		<path class="st0" d="M384.4,0.9c9.7,4.1,19.4,8.3,29.2,12.3c32,13.3,63.9,26.6,95.9,40c0.9,0.4,1.9,1.9,1.9,2.8
			c0.1,133.2,0.1,266.4,0.1,399.5c0,1.8-0.6,2.4-2.1,3.1c-41.3,17.1-82.5,34.3-123.8,51.4c-0.9,0.4-2.2,0.5-3.2,0.2
			c-94.1-31.6-188.1-63.3-282.2-94.9C68.7,404.6,37.2,394,5.8,383.4c-0.8-0.3-1.6-0.6-2.3-1.2c126.7,18.8,253.5,37.6,380.5,56.5
			c0-1.1,0-2,0-2.9c0-143.9,0-287.8,0-431.8c0-1.1,0-2.1,0.1-3.2C384.1,0.9,384.3,0.9,384.4,0.9z"/>
		<path class="st0" d="M33.3,147.8c9.6-3.2,18.8-6.3,28.1-9.3c0.7-0.2,1.9,0.3,2.6,0.8c22.4,16.8,44.8,33.7,67.1,50.5
			c0.6,0.4,1.1,0.8,2.5,2c8.2-8.5,16.2-17.2,24.5-25.5c30-29.8,60.2-59.5,90.2-89.3c1.3-1.3,2.3-1.4,4-0.7c22,9.4,44,18.7,66,28.2
			c0.9,0.4,1.8,1.8,1.8,2.7c0.1,74.3,0.1,148.6,0,222.9c0,1-1,2.5-1.9,2.8c-22,9.5-44.1,18.8-66.2,28.1c-0.9,0.4-2.6,0-3.3-0.6
			c-38-37.5-76-75-114-112.6c-0.5-0.5-0.9-1.3-1.3-2c-12.6,9.5-24.7,18.6-36.8,27.7c-10.8,8.2-21.7,16.4-32.6,24.4
			c-0.8,0.6-2.4,0.9-3.4,0.6c-9-2.9-18-6-27.2-9c24-23.7,47.8-47.2,71.7-70.9C81.2,195.1,57.4,171.6,33.3,147.8z M249.9,279.3
			c0-40.5,0-80.7,0-121.1c-26.9,20.3-53.6,40.3-80.4,60.6C196.4,239,223,259,249.9,279.3z"/>
	</g>
</g>
</svg>
